<?xml version="1.0" standalone="no"?><!DOCTYPE svg PUBLIC "-//W3C//DTD SVG 1.1//EN" "http://www.w3.org/Graphics/SVG/1.1/DTD/svg11.dtd"><svg t="1626764838903" class="icon" viewBox="0 0 1024 1024" version="1.1" xmlns="http://www.w3.org/2000/svg" p-id="26151" xmlns:xlink="http://www.w3.org/1999/xlink" width="200" height="200"><defs><style type="text/css"></style></defs><path d="M405.356145 0" p-id="26152" fill="correntColor"></path><path d="M500.967736 47.742351c126.896108 0 230.132354 99.55746 230.132354 221.929532 0 122.405841-103.236246 221.989907-230.132354 221.989907-126.948297 0-230.227522-99.584066-230.227522-221.989907C270.740214 147.299811 374.019439 47.742351 500.967736 47.742351M500.967736 0c-153.267732 0-277.969872 121.036657-277.969872 269.672906 0 148.666948 124.70214 269.732258 277.969872 269.732258 153.233963 0 277.874705-121.033587 277.874705-269.732258C778.842441 121.036657 654.202723 0 500.967736 0L500.967736 0z" p-id="26153"></path><path d="M615.442954 613.071953c167.190837 0 303.208697 131.221624 303.208697 292.515147l0 20.202111c0 50.324152-168.121022 50.324152-303.208697 50.324152L407.252331 976.113363c-142.121881 0-303.20665 0-303.20665-50.324152l0-20.202111c0-161.293523 136.018883-292.515147 303.20665-292.515147L615.442954 613.071953M615.442954 565.329603 407.252331 565.329603c-193.58088 0-350.950024 152.582117-350.950024 340.258521l0 20.202111c0 98.066503 154.85488 98.066503 350.950024 98.066503l208.189599 0c188.390671 0 350.951047 0 350.951047-98.066503l0-20.202111C966.394001 717.975165 808.930713 565.329603 615.442954 565.329603L615.442954 565.329603z" p-id="26154" fill="#96a0a2"></path></svg>
