<?xml version="1.0" standalone="no"?><!DOCTYPE svg PUBLIC "-//W3C//DTD SVG 1.1//EN" "http://www.w3.org/Graphics/SVG/1.1/DTD/svg11.dtd"><svg t="1626854569174" class="icon" viewBox="0 0 1462 1024" version="1.1" xmlns="http://www.w3.org/2000/svg" p-id="4682" xmlns:xlink="http://www.w3.org/1999/xlink" width="285.546875" height="200"><defs><style type="text/css">@font-face { font-family: feedback-iconfont; src: url("//at.alicdn.com/t/font_1031158_1uhr8ri0pk5.eot?#iefix") format("embedded-opentype"), url("//at.alicdn.com/t/font_1031158_1uhr8ri0pk5.woff2") format("woff2"), url("//at.alicdn.com/t/font_1031158_1uhr8ri0pk5.woff") format("woff"), url("//at.alicdn.com/t/font_1031158_1uhr8ri0pk5.ttf") format("truetype"), url("//at.alicdn.com/t/font_1031158_1uhr8ri0pk5.svg#iconfont") format("svg"); }
</style></defs><path d="M485.229714 951.881143c-18.139429 0-32.548571 0-473.819428-444.854857a34.962286 34.962286 0 0 1 0-50.688C449.024 0.731429 467.090286 0.731429 485.229714 0.731429h904.192c39.716571 0 72.265143 32.548571 72.265143 72.338285v806.546286a72.557714 72.557714 0 0 1-72.265143 72.338286H485.229714z m195.291429-271.286857a39.058286 39.058286 0 0 0 25.307428 10.898285c7.241143 0 18.066286-3.657143 25.307429-10.898285l151.917714-151.917715 151.917715 151.917715a39.058286 39.058286 0 0 0 25.307428 10.898285c7.241143 0 18.066286-3.657143 25.307429-10.898285a34.962286 34.962286 0 0 0 0-50.614857l-151.917715-151.917715 151.917715-151.917714a34.962286 34.962286 0 0 0 0-50.614857 34.962286 34.962286 0 0 0-50.614857 0l-151.917715 151.917714-151.917714-151.917714a34.962286 34.962286 0 0 0-50.614857 0 34.962286 34.962286 0 0 0 0 50.614857l151.917714 151.917714-151.917714 151.917715a43.446857 43.446857 0 0 0 0 50.614857z" fill="#3e4445" p-id="4683"></path></svg>