<?xml version="1.0" standalone="no"?><!DOCTYPE svg PUBLIC "-//W3C//DTD SVG 1.1//EN" "http://www.w3.org/Graphics/SVG/1.1/DTD/svg11.dtd"><svg t="1626871476348" class="icon" viewBox="0 0 1024 1024" version="1.1" xmlns="http://www.w3.org/2000/svg" p-id="13457" xmlns:xlink="http://www.w3.org/1999/xlink" width="200" height="200"><defs><style type="text/css">@font-face { font-family: feedback-iconfont; src: url("//at.alicdn.com/t/font_1031158_1uhr8ri0pk5.eot?#iefix") format("embedded-opentype"), url("//at.alicdn.com/t/font_1031158_1uhr8ri0pk5.woff2") format("woff2"), url("//at.alicdn.com/t/font_1031158_1uhr8ri0pk5.woff") format("woff"), url("//at.alicdn.com/t/font_1031158_1uhr8ri0pk5.ttf") format("truetype"), url("//at.alicdn.com/t/font_1031158_1uhr8ri0pk5.svg#iconfont") format("svg"); }
</style></defs><path d="M901.246 315.81h-213.04v-96.94c0-73.891-53.574-131.258-128.77-131.258h-82.863c-75.762 0-140.385 59.794-140.385 131.258v96.94H134.765c-34.268 0-67.705 29.333-67.705 63.601V876.59c0 34.268 33.438 60.368 67.705 60.368h766.481c34.269 0 56.09-26.1 56.09-60.368V379.412c0-34.27-21.821-63.602-56.09-63.602z m-524.125-96.94c0-49.443 45.64-90.325 99.453-90.325h82.863c51.577 0 87.838 40.053 87.838 90.325v96.94H377.122v-96.94z m539.282 657.719c0 11.393-3.763 19.435-15.157 19.435h-766.48c-11.394 0-26.773-8.042-26.773-19.435V379.412c0-11.393 15.379-22.669 26.772-22.669h766.482c11.394 0 15.157 11.276 15.157 22.67v497.176z" p-id="13458" fill="#3e4445"></path><path d="M631.942 542.984h-47.09v-39.278c0-34.268-22.22-64.076-56.49-64.076h-20.715c-34.269 0-68.105 29.807-68.105 64.076v39.278h-35.474c-34.269 0-67.88 30.032-67.88 64.3V628c0 34.268 33.611 60.293 67.88 60.293h35.474v43.285c0 34.268 33.836 60.07 68.105 60.07h20.716c34.268 0 56.49-25.8 56.49-60.07v-43.285h47.089c34.268 0 56.264-26.025 56.264-60.293v-20.716c0-34.268-21.996-64.3-56.264-64.3zM647.274 628c0 11.393-3.939 19.36-15.332 19.36h-62.148c-11.393 0-26.897 10.678-26.897 22.072v62.147c0 11.393-3.14 19.137-14.534 19.137h-20.716c-11.394 0-26.15-7.744-26.15-19.137v-62.147c0-11.394-3.888-22.071-15.282-22.071h-62.147c-11.394 0-26.948-7.968-26.948-19.361v-20.716c0-11.393 15.554-22.345 26.948-22.345h62.147c11.394 0 15.282-7.693 15.282-19.086v-62.148c0-11.393 14.756-22.12 26.15-22.12H528.363c11.393 0 14.534 10.727 14.534 22.12v62.148c0 11.393 15.504 19.086 26.897 19.086h62.148c11.393 0 15.332 10.952 15.332 22.345V628z" p-id="13459" fill="#3e4445"></path></svg>