<?xml version="1.0" standalone="no"?><!DOCTYPE svg PUBLIC "-//W3C//DTD SVG 1.1//EN" "http://www.w3.org/Graphics/SVG/1.1/DTD/svg11.dtd"><svg t="1626587156827" class="icon" viewBox="0 0 1024 1024" version="1.1" xmlns="http://www.w3.org/2000/svg" p-id="3976" xmlns:xlink="http://www.w3.org/1999/xlink" width="200" height="200"><defs><style type="text/css"></style></defs><path d="M405.10919903 628.71867793c-53.86987441 32.53992451-61.85985557-18.25995761-61.85985557-18.25995762l-67.509842-170.63960185c-25.97993965-81.08981104 22.47994776-36.55991426 22.47994776-36.55991514s41.57990332 34.06992011 73.13982891 54.82987207c31.53992607 20.76995127 67.48984248 6.09998555 67.48984247 6.09998643l441.36897013-220.66948565C798.77828076 133.75983271 664.26859443 62 511.9789502 62 263.44953037 62 62 252.9795544 62 488.57900469c0 135.52968339 66.69984463 256.12940214 170.60960215 334.29922031l-18.73995645 116.67972744s-9.13997901 34.0599208 22.51994766 18.25995762c21.56994932-10.75997461 76.55982099-49.37988516 109.29974502-72.84983027A470.41890205 470.41890205 0 0 0 511.99894971 915.16800957c248.50942031 0 449.99894971-190.9795544 449.99895058-426.57900468 0-68.23984043-16.97996075-132.68969033-47.04989062-189.89955704-140.62967227 91.63978594-467.69890869 304.61928926-509.83881064 330.02923008z" fill="#ffffff" p-id="3977"></path></svg>