<?xml version="1.0" standalone="no"?><!DOCTYPE svg PUBLIC "-//W3C//DTD SVG 1.1//EN" "http://www.w3.org/Graphics/SVG/1.1/DTD/svg11.dtd"><svg t="1626873501683" class="icon" viewBox="0 0 1024 1024" version="1.1" xmlns="http://www.w3.org/2000/svg" p-id="7848" xmlns:xlink="http://www.w3.org/1999/xlink" width="200" height="200"><defs><style type="text/css">@font-face { font-family: feedback-iconfont; src: url("//at.alicdn.com/t/font_1031158_1uhr8ri0pk5.eot?#iefix") format("embedded-opentype"), url("//at.alicdn.com/t/font_1031158_1uhr8ri0pk5.woff2") format("woff2"), url("//at.alicdn.com/t/font_1031158_1uhr8ri0pk5.woff") format("woff"), url("//at.alicdn.com/t/font_1031158_1uhr8ri0pk5.ttf") format("truetype"), url("//at.alicdn.com/t/font_1031158_1uhr8ri0pk5.svg#iconfont") format("svg"); }
</style></defs><path d="M1020.477996 417.041362c-11.740012 35.671576-58.338831 34.407267-75.768233 34.226651l-61.589911 0.270923v415.957669c0 59.693447-44.792662 108.279037-99.790105 108.279037H642.178675c-10.566011 0.722462-20.590176-4.605697-26.008642-13.726784-5.508775-9.211394-5.508775-20.680483 0-29.891878 5.508775-9.211394 15.532939-14.449246 26.008642-13.726783h141.151072c24.47341 0 44.431431-22.757562 44.431431-50.752977V423.001676c-0.090308-7.585854 2.799541-14.900785 8.037393-20.228945 5.237852-5.418467 12.281859-8.488932 19.777406-8.488932h1.444924l88.321016-0.361231h12.914014c-5.689391-5.960314-11.740012-11.469089-18.151865-16.526325L568.306905 111.981656l-1.62554-1.174001c-47.411588-39.374195-91.03025-2.709234-95.90687 1.444925-0.722462 0.722462-1.715848 1.535232-2.528618 2.167386L79.380545 388.504101h98.887027c15.442632 0.180616 27.814798 13.004321 27.724491 28.808184v0.903078c0.361231 1.174001 0.541847 2.348002 0.722462 3.612311v445.759238c0 27.995414 19.958021 50.752976 44.431431 50.752977h246.630568V694.828115H363.488844c-14.720169-1.264309-26.008643-13.726784-26.008643-28.717876s11.288473-27.543875 26.008643-28.717876H497.595908v-63.396067H363.488844c-15.0814-0.722462-26.911721-13.365553-26.911721-28.717876s11.83032-27.995414 26.911721-28.717877h95.545639L362.314843 405.301349c-10.295088-11.83032-9.39201-29.891878 2.077079-40.548196 11.198166-10.475703 28.537261-9.662933 38.832348 1.715848l0.361231 0.361231 121.373666 139.254608 125.437517-138.35153c4.876621-5.508775 11.740012-8.759855 19.054943-9.030779 7.314931-0.361231 14.358938 2.257695 19.777406 7.314931l0.541846 0.451539c11.198166 10.927242 11.740012 28.9888 1.264309 40.548196L591.425699 516.470235h95.635947c15.623247 0 28.266337 12.823706 28.266337 28.717877s-12.64309 28.717876-28.266337 28.717876H553.044889v63.486375h134.107064c14.720169 1.264309 26.008643 13.726784 26.008643 28.717876s-11.288473 27.543875-26.008643 28.717876H553.044889v250.423494c0 8.037393-3.341388 15.713555-9.211394 21.041715-5.147544 5.870006-12.462475 9.301702-20.228944 9.39201h-272.729518c-55.08775 0-99.880413-48.58559-99.880413-108.279037V445.939854H56.893906c-30.794955-2.257695-49.037128-13.636476-54.184672-33.865421-7.495546-29.530646 20.40956-53.733133 37.658347-65.563453L435.373842 67.821148c28.9888-25.466796 98.34518-57.074522 164.992328-2.618926l371.616545 265.233972c23.299409 17.700326 59.874063 51.83667 48.314666 86.785783l0.180615-0.180615z m0 0" p-id="7849" fill="#96a0a2"></path></svg>