<?xml version="1.0" standalone="no"?><!DOCTYPE svg PUBLIC "-//W3C//DTD SVG 1.1//EN" "http://www.w3.org/Graphics/SVG/1.1/DTD/svg11.dtd"><svg t="1626873481691" class="icon" viewBox="0 0 1200 1024" version="1.1" xmlns="http://www.w3.org/2000/svg" p-id="6959" xmlns:xlink="http://www.w3.org/1999/xlink" width="234.375" height="200"><defs><style type="text/css">@font-face { font-family: feedback-iconfont; src: url("//at.alicdn.com/t/font_1031158_1uhr8ri0pk5.eot?#iefix") format("embedded-opentype"), url("//at.alicdn.com/t/font_1031158_1uhr8ri0pk5.woff2") format("woff2"), url("//at.alicdn.com/t/font_1031158_1uhr8ri0pk5.woff") format("woff"), url("//at.alicdn.com/t/font_1031158_1uhr8ri0pk5.ttf") format("truetype"), url("//at.alicdn.com/t/font_1031158_1uhr8ri0pk5.svg#iconfont") format("svg"); }
</style></defs><path d="M1184.486 231.212c-11.759-22.81-32.733-40.854-59.004-50.706L693.919 18.714C638.129-8.934 553.666-2.93 509.28 17.55L75.07 180.506c-26.306 9.887-47.316 27.896-58.968 50.636a145.16 145.16 0 0 0-0.036 132.696c11.723 22.81 32.698 40.783 58.968 50.705l42.232 15.82v364.861H93.502a1.2 1.2 0 0 0-1.2 1.2v203.388c0 0.636 0.529 1.201 1.2 1.201h109.25a1.2 1.2 0 0 0 1.165-1.2V796.424a1.2 1.2 0 0 0-1.165-1.2h-28.248V451.83l46.01 17.267v222.314c0 76.447 216.875 138.063 396.428 138.063s396.43-61.616 396.43-138.063V456.598l112.075-42.055c26.306-9.851 47.28-27.895 59.074-50.705a145.126 145.126 0 0 0-0.035-132.626z m-227.47 455.574c-11.864 21.893-147.138 85.169-340.074 85.169s-328.245-63.312-339.19-80.508V490.602l231.211 86.757c25.742 10.382 56.497 15.537 88.311 15.537 31.603 0 64.23-5.085 93.997-15.395l265.25-99.575 0.495 208.86z m176.623-349.36c-5.12 9.957-15.396 18.361-28.178 23.163l-433.54 162.78c-46.257 15.89-103.177 16.138-141.948 0.46L95.055 360.554c-12.747-4.767-23.022-13.206-28.142-23.164a87.181 87.181 0 0 1 0.035-79.766c5.085-9.922 15.36-18.361 28.107-23.128l436.19-163.875c17.16-7.91 43.501-12.677 70.443-12.677 24.965 0 50.423 4.096 69.562 13.489l434.246 163.028c12.747 4.767 22.987 13.206 28.143 23.128 12.817 24.964 12.817 54.731 0 79.801z" p-id="6960" fill="#96a0a2"></path></svg>