<?xml version="1.0" standalone="no"?><!DOCTYPE svg PUBLIC "-//W3C//DTD SVG 1.1//EN" "http://www.w3.org/Graphics/SVG/1.1/DTD/svg11.dtd"><svg t="1626871339402" class="icon" viewBox="0 0 1145 1024" version="1.1" xmlns="http://www.w3.org/2000/svg" p-id="2097" xmlns:xlink="http://www.w3.org/1999/xlink" width="223.6328125" height="200"><defs><style type="text/css">@font-face { font-family: feedback-iconfont; src: url("//at.alicdn.com/t/font_1031158_1uhr8ri0pk5.eot?#iefix") format("embedded-opentype"), url("//at.alicdn.com/t/font_1031158_1uhr8ri0pk5.woff2") format("woff2"), url("//at.alicdn.com/t/font_1031158_1uhr8ri0pk5.woff") format("woff"), url("//at.alicdn.com/t/font_1031158_1uhr8ri0pk5.ttf") format("truetype"), url("//at.alicdn.com/t/font_1031158_1uhr8ri0pk5.svg#iconfont") format("svg"); }
</style></defs><path d="M290.914142 1024c-62.59622 0-88.109098-25.57073-88.109098-88.340507l37.546162-376.040141c0-13.711002-8.851406-14.40523-10.644829-14.40523a13.190331 13.190331 0 0 0-4.454629 0.809932 80.125476 80.125476 0 0 1-30.77744 5.785233A86.778494 86.778494 0 0 1 133.497953 526.469967L26.471144 419.443157a87.588427 87.588427 0 0 1-1.619866-123.861837l1.619866-1.619865L306.129304 32.353221A118.597275 118.597275 0 0 1 384.808472 0.013769a50.736493 50.736493 0 0 1 47.207501 32.223747C458.917306 97.032125 488.07488 150.429825 572.770691 150.429825s113.621975-53.629109 140.523308-118.423718A50.794345 50.794345 0 0 1 760.327943 0.013769a103.266408 103.266408 0 0 1 76.422927 31.992338l281.972254 263.922327A86.084266 86.084266 0 0 1 1145.508752 357.888279a90.712453 90.712453 0 0 1-24.934354 63.637562l-107.142514 107.084662a89.728963 89.728963 0 0 1-62.075549 24.529388 99.216745 99.216745 0 0 1-31.52952-5.20671 15.562277 15.562277 0 0 0-5.380267-0.98349c-2.892616 0-9.719191 1.157047-9.719191 12.14899l37.604014 377.139335c0 62.133402-25.57073 87.761984-88.109098 87.761984z m-54.439042-553.241826a63.059039 63.059039 0 0 1 48.422399 21.521066 84.637958 84.637958 0 0 1 19.033417 66.125213l-35.694888 374.825242a22.504556 22.504556 0 0 0 5.20671 18.223484 25.628582 25.628582 0 0 0 19.38053 8.909259h559.489879a28.926165 28.926165 0 0 0 21.86818-9.42993 19.669792 19.669792 0 0 0 4.512482-16.198652l-37.546162-376.040142c0-32.397304 8.330735-87.761984 63.637562-87.761983a39.513141 39.513141 0 0 1 27.826971 11.570465 23.893012 23.893012 0 0 0 33.78576 0.694228l0.636376-0.694228 107.026809-107.316071a23.140932 23.140932 0 0 0 7.115837-17.702813 24.182274 24.182274 0 0 0-9.42993-17.355698l-266.120715-248.244346-11.107648-11.1655a25.397173 25.397173 0 0 0-18.223483-7.694359 23.488046 23.488046 0 0 0-21.116101 12.958921c-46.281864 81.340375-91.464533 128.605728-184.433226 128.605729s-138.151363-47.496762-184.664635-129.1264a26.091401 26.091401 0 0 0-21.578919-12.727512 25.107911 25.107911 0 0 0-17.355699 7.752212l-11.570466 11.281204-264.50085 246.508776a23.950864 23.950864 0 0 0-0.98349 33.901465 10.702681 10.702681 0 0 0 0.809933 0.809933L177.928542 480.188103a23.893012 23.893012 0 0 0 33.785761 0.694228l0.694228-0.694228a32.455157 32.455157 0 0 1 24.066569-9.545634z m476.876751-105.754059a31.876634 31.876634 0 0 1 0-63.637562h150.416057a31.876634 31.876634 0 0 1 0 63.637562z" fill="currentColor" p-id="2098"></path></svg>
