<?xml version="1.0" standalone="no"?><!DOCTYPE svg PUBLIC "-//W3C//DTD SVG 1.1//EN" "http://www.w3.org/Graphics/SVG/1.1/DTD/svg11.dtd"><svg t="1627102008267" class="icon" viewBox="0 0 1024 1024" version="1.1" xmlns="http://www.w3.org/2000/svg" p-id="5163" xmlns:xlink="http://www.w3.org/1999/xlink" width="200" height="200"><defs><style type="text/css">@font-face { font-family: feedback-iconfont; src: url("//at.alicdn.com/t/font_1031158_1uhr8ri0pk5.eot?#iefix") format("embedded-opentype"), url("//at.alicdn.com/t/font_1031158_1uhr8ri0pk5.woff2") format("woff2"), url("//at.alicdn.com/t/font_1031158_1uhr8ri0pk5.woff") format("woff"), url("//at.alicdn.com/t/font_1031158_1uhr8ri0pk5.ttf") format("truetype"), url("//at.alicdn.com/t/font_1031158_1uhr8ri0pk5.svg#iconfont") format("svg"); }
</style></defs><path d="M512 0c282.784 0 512 229.216 512 512s-229.216 512-512 512S0 794.784 0 512 229.216 0 512 0z m0 32C246.912 32 32 246.912 32 512c0 265.088 214.912 480 480 480 265.088 0 480-214.912 480-480 0-265.088-214.912-480-480-480z" fill="#84C1FE" p-id="5164"></path><path d="M378.368 406.016c31.104 0 58.368-22.272 58.368-58.752V276.608c0-31.488-18.432-48.384-44.928-48.384-13.824 0-25.344 5.76-32.64 12.672V167.168h77.568V130.304h-112.128V277.76h34.56c2.304-4.608 6.528-14.976 19.968-14.976 10.752 0 18.432 8.832 18.432 19.584v64.128c0 12.672-6.912 20.352-18.432 20.352s-19.968-7.68-19.968-21.12v-9.984H320v11.52c0 36.48 27.264 58.752 58.368 58.752z m142.848 0c22.656 0 38.784-10.752 47.616-24.192 8.064-11.904 10.752-21.12 10.752-54.528 0-41.472-0.768-52.992-19.584-67.2 18.816-14.976 19.584-26.112 19.584-58.368 0-29.952-3.84-39.552-14.208-52.608a55.168 55.168 0 0 0-44.16-21.12c-17.664 0-33.792 7.68-44.16 21.12-10.368 13.056-14.208 22.656-14.208 52.608 0 32.256 0.768 43.392 19.584 58.368-18.816 14.208-19.584 25.728-19.584 67.2 0 33.408 2.688 42.624 10.752 54.528 8.832 13.44 24.96 24.192 47.616 24.192z m0-160.512a19.52 19.52 0 0 1-19.2-19.2V186.368c0-10.752 9.216-19.2 19.2-19.2s19.2 8.448 19.2 19.2v39.936a19.52 19.52 0 0 1-19.2 19.2z m0 121.344a19.52 19.52 0 0 1-19.2-19.2v-53.76c0-10.752 9.216-19.2 19.2-19.2s19.2 8.448 19.2 19.2v53.76a19.52 19.52 0 0 1-19.2 19.2z m107.52-153.216c19.968 0 32.64-11.904 32.64-29.184v-24.96c0-19.2-12.672-31.488-32.64-31.488s-32.64 12.288-32.64 31.488v24.96c0 17.28 12.672 29.184 32.64 29.184z m-2.688 190.08l93.696-273.408H694.4l-93.696 273.408h25.344z m2.688-213.12c-4.992 0-9.6-4.608-9.6-9.984v-19.584c0-5.376 4.608-9.984 9.6-9.984s9.6 4.608 9.6 9.984v19.584c0 5.376-4.608 9.984-9.6 9.984z m62.976 215.424c19.968 0 32.64-11.904 32.64-29.184v-24.96c0-19.2-12.672-31.488-32.64-31.488s-32.64 12.288-32.64 31.488v24.96c0 17.28 12.672 29.184 32.64 29.184z m0-23.04c-4.992 0-9.6-4.608-9.6-9.984v-19.584c0-5.376 4.608-9.984 9.6-9.984s9.6 4.608 9.6 9.984v19.584c0 5.376-4.608 9.984-9.6 9.984z" fill="#108EE9" p-id="5165"></path><path d="M270.848 448c131.008 32 305.056 132.896 405.952 132.896 100.864 0 107.584-132.896 260.192-132.896 6.4 0 12.608 0.224 18.56 0.64 2.944 20.704 4.448 41.856 4.448 63.36 0 247.424-200.576 448-448 448S64 759.424 64 512l0.032-5.28C143.744 453.376 212.672 433.792 270.848 448z" fill="#B4D9FF" p-id="5166"></path><path d="M678.112 416c136.96 0 223.232 124.064 280.96 125.44C943.872 775.136 749.504 960 512 960 269.312 960 71.68 767.04 64.224 526.176c114.24 48.832 204.832 73.248 271.776 73.248 109.664 0 204.448-183.424 342.112-183.424z" fill="#108EE9" p-id="5167"></path></svg>