<?xml version="1.0" standalone="no"?><!DOCTYPE svg PUBLIC "-//W3C//DTD SVG 1.1//EN" "http://www.w3.org/Graphics/SVG/1.1/DTD/svg11.dtd"><svg t="1626871524859" class="icon" viewBox="0 0 1024 1024" version="1.1" xmlns="http://www.w3.org/2000/svg" p-id="15160" xmlns:xlink="http://www.w3.org/1999/xlink" width="200" height="200"><defs><style type="text/css">@font-face { font-family: feedback-iconfont; src: url("//at.alicdn.com/t/font_1031158_1uhr8ri0pk5.eot?#iefix") format("embedded-opentype"), url("//at.alicdn.com/t/font_1031158_1uhr8ri0pk5.woff2") format("woff2"), url("//at.alicdn.com/t/font_1031158_1uhr8ri0pk5.woff") format("woff"), url("//at.alicdn.com/t/font_1031158_1uhr8ri0pk5.ttf") format("truetype"), url("//at.alicdn.com/t/font_1031158_1uhr8ri0pk5.svg#iconfont") format("svg"); }
</style></defs><path d="M823.9 234.5 477 234.5c-57.2 0-104.1 46.8-104.1 104L372.9 824c0 57.2 46.8 104 104.1 104l346.9 0c57.2 0 104.1-46.8 104.1-104L928 338.5C928 281.3 881.2 234.5 823.9 234.5zM876 824c0 13.8-5.4 26.8-15.3 36.7-9.9 9.9-22.9 15.3-36.7 15.3L477 876c-13.8 0-26.8-5.4-36.7-15.3-9.9-9.9-15.3-22.9-15.3-36.7L425 416.9l54.9 54.5c14.5 14.4 33.8 22.4 54.2 22.4l232.8 0c20.4 0 39.6-7.9 54.2-22.4l54.9-54.5L876 824zM876 342.2c-1.3 3.1-3.3 6-5.8 8.5l-85.1 84.5c-4.9 4.9-11.4 7.5-18.2 7.5L534.1 442.7c-6.8 0-13.3-2.7-18.2-7.5l-85.1-84.5c-2.5-2.5-4.4-5.4-5.8-8.5l0-3.7c0-13.8 5.4-26.8 15.3-36.7 9.9-9.9 22.9-15.3 36.7-15.3l346.9 0c13.8 0 26.8 5.4 36.7 15.3 9.9 9.9 15.3 22.9 15.3 36.7L875.9 342.2zM262.6 373.2l-104.1-59.6c-3-1.7-5.7-4-7.8-6.7l-1-3.6c-3.6-13.3-1.7-27.3 5.3-39.4 7-12.1 18.2-20.7 31.5-24.3l335.1-89.7c13.3-3.6 27.3-1.7 39.4 5.3 12.1 7 20.7 18.2 24.3 31.5l0.1 0.2 0.1 0 3.5 13 53.8 0-7.2-26.7c-14.8-55.3-72.2-88.4-127.5-73.6l-335.1 89.7c-55.3 14.8-88.4 72.1-73.6 127.4l125.7 468.9c13.5 50.5 62.5 82.4 113.1 76.3l0-52.8c-13 3.2-26.7 1.3-38.5-5.5-12.1-7-20.7-18.2-24.3-31.5L170.1 379l67.2 38.5c17.8 10.2 38.4 12.9 58.1 7.6l42.9-11.5 0-52.8-56.1 15C275.6 377.5 268.6 376.6 262.6 373.2zM706.6 666c-7.6-5.3-15.7-9.5-24.4-12.5-8.7-3-16.8-6.1-24.4-9.3-7.6-3.2-13.9-7.1-18.9-11.5-5-4.4-7.5-10.6-7.5-18.3 0-5.1 1.6-9.8 4.7-14.2 3.1-4.3 8-6.5 14.7-6.5 6 0 10.5 2.5 13.4 7.5 2.9 5 4.3 10.8 4.3 17.5l0 5 58.1 0c0-22.9-5-39.9-15-51.2-10-11.2-26.2-17.9-48.4-20.2L663.2 533l-30.7 0 0 19.3c-40.8 6.7-61.1 30.8-61.1 72.3 0 13.6 2.4 24.6 7.2 33 4.8 8.4 10.8 15.3 18 20.5 7.2 5.2 15.1 9.4 23.5 12.7 8.5 3.2 16.3 6.4 23.5 9.7 7.2 3.2 13.2 7.1 18 11.5 4.8 4.4 7.2 10.4 7.2 18 0 6-1.7 11.1-5.2 15.3-3.5 4.2-8.4 6.3-14.9 6.3-6.2 0-11.2-1.9-15-5.7-3.8-3.8-5.7-10.7-5.7-20.7L628 719 568 719l0 9c0 21.1 5.5 36.5 16.4 46.2 10.9 9.7 26.9 15.6 48.1 17.8l0 30 30.7 0 0-30c22.9-2.4 40.3-9.1 52.1-20 11.8-10.9 17.7-27.7 17.7-50.3 0-14.4-2.5-26-7.5-34.7C720.5 678.3 714.2 671.3 706.6 666z" p-id="15161" fill="#3e4445"></path></svg>