<?xml version="1.0" standalone="no"?><!DOCTYPE svg PUBLIC "-//W3C//DTD SVG 1.1//EN" "http://www.w3.org/Graphics/SVG/1.1/DTD/svg11.dtd"><svg t="1626759875284" class="icon" viewBox="0 0 1024 1024" version="1.1" xmlns="http://www.w3.org/2000/svg" p-id="18606" xmlns:xlink="http://www.w3.org/1999/xlink" width="200" height="200"><defs><style type="text/css"></style></defs><path d="M573.44 168.96c142.336 25.6 256 138.24 281.6 281.6H573.44v-281.6m-61.44-66.56v409.6h409.6c0-226.304-183.296-409.6-409.6-409.6z" fill="currentColor" p-id="18607"></path><path d="M844.8 615.424c-47.104 150.528-193.536 258.048-362.496 243.712-166.912-14.336-303.104-149.504-316.416-316.416-14.336-168.96 93.184-315.392 243.712-362.496 13.312-4.096 21.504-15.36 21.504-29.696 0-20.48-20.48-35.84-39.936-29.696-175.104 54.272-300.032 224.256-286.72 419.84 14.336 203.776 176.128 365.568 379.904 379.904 196.608 13.312 365.568-111.616 419.84-286.72 6.144-19.456-8.192-39.936-29.696-39.936-14.336 0-25.6 9.216-29.696 21.504z" fill="#96a0a2" p-id="18608"></path></svg>
