<?xml version="1.0" standalone="no"?><!DOCTYPE svg PUBLIC "-//W3C//DTD SVG 1.1//EN" "http://www.w3.org/Graphics/SVG/1.1/DTD/svg11.dtd"><svg t="1626873973228" class="icon" viewBox="0 0 1204 1024" version="1.1" xmlns="http://www.w3.org/2000/svg" p-id="15008" xmlns:xlink="http://www.w3.org/1999/xlink" width="235.15625" height="200"><defs><style type="text/css">@font-face { font-family: feedback-iconfont; src: url("//at.alicdn.com/t/font_1031158_1uhr8ri0pk5.eot?#iefix") format("embedded-opentype"), url("//at.alicdn.com/t/font_1031158_1uhr8ri0pk5.woff2") format("woff2"), url("//at.alicdn.com/t/font_1031158_1uhr8ri0pk5.woff") format("woff"), url("//at.alicdn.com/t/font_1031158_1uhr8ri0pk5.ttf") format("truetype"), url("//at.alicdn.com/t/font_1031158_1uhr8ri0pk5.svg#iconfont") format("svg"); }
</style></defs><path d="M318.23495484 737.18237305h648.59573363a31.0696106 31.0696106 0 0 0 28.98577882-28.86135865s44.46990967-247.46676636 64.77017211-417.90426635c5.83126831-47.15112305-16.40368653-70.28009033-59.93096924-70.28009034h-708.50280761L280.49032593 119.03579712A30.15170288 30.15170288 0 0 0 253.41534424 90.125H122.95709229a32.7571106 32.7571106 0 0 0 0 65.46478271h101.49719238l65.76388549 552.83010865a29.53125 29.53125 0 0 0 28.01678468 28.78720093z m679.54174804-452.54827881c-17.49545288 136.73693847-46.40625 319.68237305-57.99545288 387.87698364H346.27728271l-46.40625-387.87698364h697.90567017z m-647.65228272 518.01306152a64.52215576 64.52215576 0 1 0 64.77017213 64.52215576 64.62103271 64.62103271 0 0 0-64.72073365-64.52215576h-0.04943848z m584.79290772 0a64.52215576 64.52215576 0 1 0 64.77017212 64.52215576 64.62103271 64.62103271 0 0 0-64.74545288-64.52215576z" p-id="15009" fill="#96a0a2"></path></svg>