<?xml version="1.0" standalone="no"?><!DOCTYPE svg PUBLIC "-//W3C//DTD SVG 1.1//EN" "http://www.w3.org/Graphics/SVG/1.1/DTD/svg11.dtd"><svg t="1627099851779" class="icon" viewBox="0 0 1024 1024" version="1.1" xmlns="http://www.w3.org/2000/svg" p-id="2045" xmlns:xlink="http://www.w3.org/1999/xlink" width="200" height="200"><defs><style type="text/css">@font-face { font-family: feedback-iconfont; src: url("//at.alicdn.com/t/font_1031158_1uhr8ri0pk5.eot?#iefix") format("embedded-opentype"), url("//at.alicdn.com/t/font_1031158_1uhr8ri0pk5.woff2") format("woff2"), url("//at.alicdn.com/t/font_1031158_1uhr8ri0pk5.woff") format("woff"), url("//at.alicdn.com/t/font_1031158_1uhr8ri0pk5.ttf") format("truetype"), url("//at.alicdn.com/t/font_1031158_1uhr8ri0pk5.svg#iconfont") format("svg"); }
</style></defs><path d="M238.88432376 456.85164231c14.0684586 0 28.1369172 5.62738344 39.39168408 16.31941196l456.94353524 452.44162851c21.94679541 21.94679541 21.94679541 56.83657274 0.56273837 78.78336815s-56.83657274 21.94679541-78.78336816 0.56273833l-456.94353525-452.44162849a55.87991754 55.87991754 0 0 1-0.56273832-78.78336814c10.12929019-11.81750524 24.76048712-16.88215032 39.39168404-16.88215032z" fill="#ffffff" p-id="2046"></path><path d="M690.76321393-0.09189297c14.0684586 0 28.1369172 5.62738344 39.39168407 16.31941198 21.94679541 21.94679541 21.94679541 56.83657274 0.56273834 78.78336814l-452.44162851 456.94353527a55.87991754 55.87991754 0 0 1-78.78336814 0.56273835 55.87991754 55.87991754 0 0 1-0.56273835-78.78336813L651.37152985 16.79025735c10.69202854-11.25476687 25.32322548-16.88215032 39.39168408-16.88215032z" fill="#ffffff" p-id="2047"></path></svg>