<?xml version="1.0" standalone="no"?><!DOCTYPE svg PUBLIC "-//W3C//DTD SVG 1.1//EN" "http://www.w3.org/Graphics/SVG/1.1/DTD/svg11.dtd"><svg t="1627056541767" class="icon" viewBox="0 0 1024 1024" version="1.1" xmlns="http://www.w3.org/2000/svg" p-id="3443" xmlns:xlink="http://www.w3.org/1999/xlink" width="200" height="200"><defs><style type="text/css">@font-face { font-family: feedback-iconfont; src: url("//at.alicdn.com/t/font_1031158_1uhr8ri0pk5.eot?#iefix") format("embedded-opentype"), url("//at.alicdn.com/t/font_1031158_1uhr8ri0pk5.woff2") format("woff2"), url("//at.alicdn.com/t/font_1031158_1uhr8ri0pk5.woff") format("woff"), url("//at.alicdn.com/t/font_1031158_1uhr8ri0pk5.ttf") format("truetype"), url("//at.alicdn.com/t/font_1031158_1uhr8ri0pk5.svg#iconfont") format("svg"); }
</style></defs><path d="M584.118857 671.524571a109.714286 109.714286 0 1 1-59.245714-42.934857l152.502857-211.163428a36.571429 36.571429 0 1 1 59.318857 42.861714L584.118857 671.451429zM512 926.500571A414.500571 414.500571 0 1 0 512 97.499429a414.500571 414.500571 0 0 0 0 829.001142z m0 73.142858A487.643429 487.643429 0 1 1 512 24.356571a487.643429 487.643429 0 0 1 0 975.286858zM889.929143 512a36.571429 36.571429 0 1 1-73.142857 0 304.786286 304.786286 0 1 0-609.572572 0 36.571429 36.571429 0 0 1-73.142857 0 377.929143 377.929143 0 1 1 755.858286 0zM493.714286 697.344a36.571429 36.571429 0 1 0 0 73.142857 36.571429 36.571429 0 0 0 0-73.142857z" p-id="3444" fill="#3e4445"></path></svg>