<?xml version="1.0" standalone="no"?><!DOCTYPE svg PUBLIC "-//W3C//DTD SVG 1.1//EN" "http://www.w3.org/Graphics/SVG/1.1/DTD/svg11.dtd"><svg t="1626871422208" class="icon" viewBox="0 0 1024 1024" version="1.1" xmlns="http://www.w3.org/2000/svg" p-id="4552" xmlns:xlink="http://www.w3.org/1999/xlink" width="200" height="200"><defs><style type="text/css">@font-face { font-family: feedback-iconfont; src: url("//at.alicdn.com/t/font_1031158_1uhr8ri0pk5.eot?#iefix") format("embedded-opentype"), url("//at.alicdn.com/t/font_1031158_1uhr8ri0pk5.woff2") format("woff2"), url("//at.alicdn.com/t/font_1031158_1uhr8ri0pk5.woff") format("woff"), url("//at.alicdn.com/t/font_1031158_1uhr8ri0pk5.ttf") format("truetype"), url("//at.alicdn.com/t/font_1031158_1uhr8ri0pk5.svg#iconfont") format("svg"); }
</style></defs><path d="M835.487016 164.513527H535.869884l33.278151-105.750569h203.082051a29.011722 29.011722 0 0 0 28.784179-29.409922 29.011722 29.011722 0 0 0-28.727293-29.353036h-224.129771a28.784179 28.784179 0 0 0-27.30515 20.365091l-45.337925 144.148436H188.468739C147.340358 164.513527 113.777778 198.815621 113.777778 240.91106v90.448309C113.777778 370.49675 142.561956 402.750958 179.53768 407.301817l34.927837 537.911449c0 45.849897 55.577357 78.786734 112.121771 78.786734h376.469752c55.748014 0 107.570913-33.050608 107.570913-80.777735l24.688406-475.337148a28.841064 28.841064 0 0 0-28.385979-32.254208 28.841064 28.841064 0 0 0-28.556635 29.182379l-24.745292 476.531748c-0.056886 10.068774-22.299206 24.290206-50.571413 24.290206H326.587288c-15.245375 0-31.287151-4.26643-42.948725-11.206488-8.703516-5.119716-12.173546-9.72746-12.173546-11.149603l-34.700294-535.408477h598.722293c41.185267 0 74.690962-34.302094 74.690962-76.397534v-90.448308c0-42.152325-33.56258-76.454419-74.690962-76.454419z m17.236376 166.902728c0 9.670574-7.736459 17.634576-17.236376 17.634576H188.468739a17.463919 17.463919 0 0 1-17.236375-17.634576v-90.448309c0-9.784345 7.736459-17.634576 17.236375-17.634576H835.487016c9.499917 0 17.236376 7.850231 17.236376 17.634576v90.448309z m-159.962669 519.025387l-219.180712-190.851619a28.272207 28.272207 0 0 0-40.502639 3.299372 29.865007 29.865007 0 0 0 3.242487 41.41281l219.237598 190.908506a28.272207 28.272207 0 0 0 40.502638-3.356258 29.865007 29.865007 0 0 0-3.299372-41.412811z m0.227543-209.055052L583.369467 544.96528a28.272207 28.272207 0 0 0-40.502639 3.071829 29.865007 29.865007 0 0 0 3.014944 41.469696l109.618799 96.478196a28.272207 28.272207 0 0 0 40.502639-3.07183 29.865007 29.865007 0 0 0-3.014944-41.469696z" p-id="4553" fill="#3e4445"></path></svg>